<mxfile host="app.diagrams.net" modified="2024-05-28T12:30:25.745Z" agent="Mozilla/5.0 (Windows NT 10.0; Win64; x64) AppleWebKit/537.36 (KHTML, like Gecko) Chrome/125.0.0.0 Safari/537.36" etag="UikkzsgOo81PKIZpEc4o" version="24.4.9" type="github">
  <diagram name="Backend" id="b520641d-4fe3-3701-9064-5fc419738815">
    <mxGraphModel dx="2211" dy="999" grid="1" gridSize="15" guides="1" tooltips="1" connect="1" arrows="1" fold="1" page="0" pageScale="1" pageWidth="1169" pageHeight="827" background="none" math="0" shadow="0">
      <root>
        <mxCell id="0" />
        <mxCell id="1" parent="0" />
        <mxCell id="U9ZrNpvi8g-LsxeKQV1H-5" value="authController.js" style="swimlane;fontStyle=1;align=center;verticalAlign=top;childLayout=stackLayout;horizontal=1;startSize=26;horizontalStack=0;resizeParent=1;resizeParentMax=0;resizeLast=0;collapsible=1;marginBottom=0;whiteSpace=wrap;html=1;" vertex="1" parent="1">
          <mxGeometry x="-1080" y="180" width="150" height="150" as="geometry">
            <mxRectangle x="60" y="350" width="100" height="30" as="alternateBounds" />
          </mxGeometry>
        </mxCell>
        <mxCell id="U9ZrNpvi8g-LsxeKQV1H-60" value="Extends" style="endArrow=block;endSize=16;endFill=0;html=1;rounded=0;fontSize=12;curved=1;entryX=0;entryY=1;entryDx=0;entryDy=0;" edge="1" parent="U9ZrNpvi8g-LsxeKQV1H-5" target="U9ZrNpvi8g-LsxeKQV1H-10">
          <mxGeometry width="160" relative="1" as="geometry">
            <mxPoint x="75" as="sourcePoint" />
            <mxPoint x="235" as="targetPoint" />
          </mxGeometry>
        </mxCell>
        <mxCell id="U9ZrNpvi8g-LsxeKQV1H-6" value="signup&lt;div&gt;signin&lt;/div&gt;&lt;div&gt;forgetPassword&lt;/div&gt;&lt;div&gt;resetPassword&lt;/div&gt;&lt;div&gt;signout&lt;/div&gt;&lt;div&gt;isSignedIn&lt;/div&gt;&lt;div&gt;isAuthenticated&lt;/div&gt;" style="text;strokeColor=none;fillColor=none;align=left;verticalAlign=top;spacingLeft=4;spacingRight=4;overflow=hidden;rotatable=0;points=[[0,0.5],[1,0.5]];portConstraint=eastwest;whiteSpace=wrap;html=1;" vertex="1" parent="U9ZrNpvi8g-LsxeKQV1H-5">
          <mxGeometry y="26" width="150" height="124" as="geometry" />
        </mxCell>
        <mxCell id="U9ZrNpvi8g-LsxeKQV1H-9" value="Backend" style="html=1;whiteSpace=wrap;" vertex="1" parent="1">
          <mxGeometry x="330" y="-105" width="110" height="50" as="geometry" />
        </mxCell>
        <mxCell id="U9ZrNpvi8g-LsxeKQV1H-10" value="Controllers" style="html=1;whiteSpace=wrap;" vertex="1" parent="1">
          <mxGeometry x="-795" y="45" width="110" height="50" as="geometry" />
        </mxCell>
        <mxCell id="U9ZrNpvi8g-LsxeKQV1H-17" value="userController.js" style="swimlane;fontStyle=1;align=center;verticalAlign=top;childLayout=stackLayout;horizontal=1;startSize=26;horizontalStack=0;resizeParent=1;resizeParentMax=0;resizeLast=0;collapsible=1;marginBottom=0;whiteSpace=wrap;html=1;" vertex="1" parent="1">
          <mxGeometry x="-900" y="180" width="150" height="75" as="geometry">
            <mxRectangle x="60" y="350" width="100" height="30" as="alternateBounds" />
          </mxGeometry>
        </mxCell>
        <mxCell id="U9ZrNpvi8g-LsxeKQV1H-18" value="getUserById&lt;div&gt;getUser&lt;/div&gt;" style="text;strokeColor=none;fillColor=none;align=left;verticalAlign=top;spacingLeft=4;spacingRight=4;overflow=hidden;rotatable=0;points=[[0,0.5],[1,0.5]];portConstraint=eastwest;whiteSpace=wrap;html=1;" vertex="1" parent="U9ZrNpvi8g-LsxeKQV1H-17">
          <mxGeometry y="26" width="150" height="49" as="geometry" />
        </mxCell>
        <mxCell id="U9ZrNpvi8g-LsxeKQV1H-19" value="courseController.js" style="swimlane;fontStyle=1;align=center;verticalAlign=top;childLayout=stackLayout;horizontal=1;startSize=26;horizontalStack=0;resizeParent=1;resizeParentMax=0;resizeLast=0;collapsible=1;marginBottom=0;whiteSpace=wrap;html=1;" vertex="1" parent="1">
          <mxGeometry x="-720" y="180" width="150" height="90" as="geometry">
            <mxRectangle x="60" y="350" width="100" height="30" as="alternateBounds" />
          </mxGeometry>
        </mxCell>
        <mxCell id="U9ZrNpvi8g-LsxeKQV1H-20" value="createCourse&lt;div&gt;deleteCourse&lt;/div&gt;&lt;div&gt;getCourses&lt;/div&gt;" style="text;strokeColor=none;fillColor=none;align=left;verticalAlign=top;spacingLeft=4;spacingRight=4;overflow=hidden;rotatable=0;points=[[0,0.5],[1,0.5]];portConstraint=eastwest;whiteSpace=wrap;html=1;" vertex="1" parent="U9ZrNpvi8g-LsxeKQV1H-19">
          <mxGeometry y="26" width="150" height="64" as="geometry" />
        </mxCell>
        <mxCell id="U9ZrNpvi8g-LsxeKQV1H-21" value="taskController.js" style="swimlane;fontStyle=1;align=center;verticalAlign=top;childLayout=stackLayout;horizontal=1;startSize=26;horizontalStack=0;resizeParent=1;resizeParentMax=0;resizeLast=0;collapsible=1;marginBottom=0;whiteSpace=wrap;html=1;" vertex="1" parent="1">
          <mxGeometry x="-540" y="180" width="150" height="135" as="geometry">
            <mxRectangle x="60" y="350" width="100" height="30" as="alternateBounds" />
          </mxGeometry>
        </mxCell>
        <mxCell id="U9ZrNpvi8g-LsxeKQV1H-22" value="createTask&lt;div&gt;deleteTask&lt;/div&gt;&lt;div&gt;getTasksForUser&lt;/div&gt;&lt;div&gt;getTasksForCourse&lt;/div&gt;&lt;div&gt;completeTask&lt;/div&gt;&lt;div&gt;reverseCompleteTask&lt;/div&gt;" style="text;strokeColor=none;fillColor=none;align=left;verticalAlign=top;spacingLeft=4;spacingRight=4;overflow=hidden;rotatable=0;points=[[0,0.5],[1,0.5]];portConstraint=eastwest;whiteSpace=wrap;html=1;" vertex="1" parent="U9ZrNpvi8g-LsxeKQV1H-21">
          <mxGeometry y="26" width="150" height="109" as="geometry" />
        </mxCell>
        <mxCell id="U9ZrNpvi8g-LsxeKQV1H-25" value="User" style="swimlane;fontStyle=1;align=center;verticalAlign=top;childLayout=stackLayout;horizontal=1;startSize=26;horizontalStack=0;resizeParent=1;resizeParentMax=0;resizeLast=0;collapsible=1;marginBottom=0;whiteSpace=wrap;html=1;" vertex="1" parent="1">
          <mxGeometry x="-285" y="180" width="150" height="135" as="geometry">
            <mxRectangle x="60" y="350" width="100" height="30" as="alternateBounds" />
          </mxGeometry>
        </mxCell>
        <mxCell id="U9ZrNpvi8g-LsxeKQV1H-26" value="name&lt;div&gt;email&lt;/div&gt;&lt;div&gt;encrypted_password&lt;/div&gt;&lt;div&gt;salt&lt;/div&gt;&lt;div&gt;courses&lt;/div&gt;&lt;div&gt;tasks&lt;/div&gt;" style="text;strokeColor=none;fillColor=none;align=left;verticalAlign=top;spacingLeft=4;spacingRight=4;overflow=hidden;rotatable=0;points=[[0,0.5],[1,0.5]];portConstraint=eastwest;whiteSpace=wrap;html=1;" vertex="1" parent="U9ZrNpvi8g-LsxeKQV1H-25">
          <mxGeometry y="26" width="150" height="109" as="geometry" />
        </mxCell>
        <mxCell id="U9ZrNpvi8g-LsxeKQV1H-69" value="Use" style="endArrow=open;endSize=12;dashed=1;html=1;rounded=0;fontSize=12;curved=1;entryX=0;entryY=0.5;entryDx=0;entryDy=0;" edge="1" parent="U9ZrNpvi8g-LsxeKQV1H-25" target="U9ZrNpvi8g-LsxeKQV1H-29">
          <mxGeometry width="160" relative="1" as="geometry">
            <mxPoint x="52" y="98" as="sourcePoint" />
            <mxPoint x="220" y="105" as="targetPoint" />
          </mxGeometry>
        </mxCell>
        <mxCell id="U9ZrNpvi8g-LsxeKQV1H-70" value="" style="endArrow=block;dashed=1;endFill=0;endSize=12;html=1;rounded=0;fontSize=12;curved=1;entryX=-0.013;entryY=1.014;entryDx=0;entryDy=0;entryPerimeter=0;" edge="1" parent="U9ZrNpvi8g-LsxeKQV1H-25" target="U9ZrNpvi8g-LsxeKQV1H-31">
          <mxGeometry width="160" relative="1" as="geometry">
            <mxPoint x="29.999949748743575" y="120" as="sourcePoint" />
            <mxPoint x="82.00999999999999" y="165" as="targetPoint" />
            <Array as="points">
              <mxPoint x="180" y="210" />
            </Array>
          </mxGeometry>
        </mxCell>
        <mxCell id="U9ZrNpvi8g-LsxeKQV1H-71" value="Use" style="edgeLabel;html=1;align=center;verticalAlign=middle;resizable=0;points=[];fontSize=12;" vertex="1" connectable="0" parent="U9ZrNpvi8g-LsxeKQV1H-70">
          <mxGeometry x="0.0895" y="28" relative="1" as="geometry">
            <mxPoint as="offset" />
          </mxGeometry>
        </mxCell>
        <mxCell id="U9ZrNpvi8g-LsxeKQV1H-27" value="Models" style="html=1;whiteSpace=wrap;" vertex="1" parent="1">
          <mxGeometry x="-85" y="45" width="110" height="50" as="geometry" />
        </mxCell>
        <mxCell id="U9ZrNpvi8g-LsxeKQV1H-28" value="Course" style="swimlane;fontStyle=1;align=center;verticalAlign=top;childLayout=stackLayout;horizontal=1;startSize=26;horizontalStack=0;resizeParent=1;resizeParentMax=0;resizeLast=0;collapsible=1;marginBottom=0;whiteSpace=wrap;html=1;" vertex="1" parent="1">
          <mxGeometry x="-105" y="180" width="150" height="135" as="geometry">
            <mxRectangle x="60" y="350" width="100" height="30" as="alternateBounds" />
          </mxGeometry>
        </mxCell>
        <mxCell id="U9ZrNpvi8g-LsxeKQV1H-29" value="courseCode&lt;div&gt;courseName&lt;/div&gt;&lt;div&gt;priority&lt;/div&gt;&lt;div&gt;tasks&lt;/div&gt;&lt;div&gt;user&lt;/div&gt;&lt;div&gt;createdAt&lt;/div&gt;" style="text;strokeColor=none;fillColor=none;align=left;verticalAlign=top;spacingLeft=4;spacingRight=4;overflow=hidden;rotatable=0;points=[[0,0.5],[1,0.5]];portConstraint=eastwest;whiteSpace=wrap;html=1;" vertex="1" parent="U9ZrNpvi8g-LsxeKQV1H-28">
          <mxGeometry y="26" width="150" height="109" as="geometry" />
        </mxCell>
        <mxCell id="U9ZrNpvi8g-LsxeKQV1H-72" value="" style="endArrow=open;endSize=12;dashed=1;html=1;rounded=0;fontSize=12;curved=1;entryX=1.013;entryY=1.011;entryDx=0;entryDy=0;entryPerimeter=0;" edge="1" parent="U9ZrNpvi8g-LsxeKQV1H-28" target="U9ZrNpvi8g-LsxeKQV1H-26">
          <mxGeometry width="160" relative="1" as="geometry">
            <mxPoint x="33" y="100" as="sourcePoint" />
            <mxPoint x="205" y="95.15999999999997" as="targetPoint" />
            <Array as="points">
              <mxPoint x="150" y="195" />
            </Array>
            <mxPoint as="offset" />
          </mxGeometry>
        </mxCell>
        <mxCell id="U9ZrNpvi8g-LsxeKQV1H-73" value="Use" style="edgeLabel;html=1;align=center;verticalAlign=middle;resizable=0;points=[];fontSize=12;" vertex="1" connectable="0" parent="U9ZrNpvi8g-LsxeKQV1H-72">
          <mxGeometry x="0.3293" y="-17" relative="1" as="geometry">
            <mxPoint as="offset" />
          </mxGeometry>
        </mxCell>
        <mxCell id="U9ZrNpvi8g-LsxeKQV1H-74" value="" style="endArrow=block;dashed=1;endFill=0;endSize=12;html=1;rounded=0;fontSize=12;curved=1;entryX=0.015;entryY=0.391;entryDx=0;entryDy=0;entryPerimeter=0;" edge="1" parent="U9ZrNpvi8g-LsxeKQV1H-28" target="U9ZrNpvi8g-LsxeKQV1H-31">
          <mxGeometry width="160" relative="1" as="geometry">
            <mxPoint x="36" y="84" as="sourcePoint" />
            <mxPoint x="102.5" y="90" as="targetPoint" />
          </mxGeometry>
        </mxCell>
        <mxCell id="U9ZrNpvi8g-LsxeKQV1H-75" value="Use" style="edgeLabel;html=1;align=center;verticalAlign=middle;resizable=0;points=[];fontSize=12;" vertex="1" connectable="0" parent="U9ZrNpvi8g-LsxeKQV1H-74">
          <mxGeometry x="-0.0844" relative="1" as="geometry">
            <mxPoint as="offset" />
          </mxGeometry>
        </mxCell>
        <mxCell id="U9ZrNpvi8g-LsxeKQV1H-30" value="Task" style="swimlane;fontStyle=1;align=center;verticalAlign=top;childLayout=stackLayout;horizontal=1;startSize=26;horizontalStack=0;resizeParent=1;resizeParentMax=0;resizeLast=0;collapsible=1;marginBottom=0;whiteSpace=wrap;html=1;" vertex="1" parent="1">
          <mxGeometry x="75" y="180" width="150" height="165" as="geometry">
            <mxRectangle x="60" y="350" width="100" height="30" as="alternateBounds" />
          </mxGeometry>
        </mxCell>
        <mxCell id="U9ZrNpvi8g-LsxeKQV1H-31" value="taskName&lt;div&gt;description&lt;/div&gt;&lt;div&gt;dueDate&lt;/div&gt;&lt;div&gt;priority&lt;/div&gt;&lt;div&gt;status&lt;/div&gt;&lt;div&gt;course&lt;/div&gt;&lt;div&gt;user&lt;/div&gt;&lt;div&gt;createdAt&lt;/div&gt;" style="text;strokeColor=none;fillColor=none;align=left;verticalAlign=top;spacingLeft=4;spacingRight=4;overflow=hidden;rotatable=0;points=[[0,0.5],[1,0.5]];portConstraint=eastwest;whiteSpace=wrap;html=1;" vertex="1" parent="U9ZrNpvi8g-LsxeKQV1H-30">
          <mxGeometry y="26" width="150" height="139" as="geometry" />
        </mxCell>
        <mxCell id="U9ZrNpvi8g-LsxeKQV1H-77" value="Use" style="endArrow=open;endSize=12;dashed=1;html=1;rounded=0;fontSize=12;curved=1;entryX=0.747;entryY=1.027;entryDx=0;entryDy=0;entryPerimeter=0;" edge="1" parent="U9ZrNpvi8g-LsxeKQV1H-30" target="U9ZrNpvi8g-LsxeKQV1H-29">
          <mxGeometry x="0.2898" y="-16" width="160" relative="1" as="geometry">
            <mxPoint x="45" y="112" as="sourcePoint" />
            <mxPoint x="120" y="124.75" as="targetPoint" />
            <Array as="points">
              <mxPoint x="180" y="255" />
            </Array>
            <mxPoint as="offset" />
          </mxGeometry>
        </mxCell>
        <mxCell id="U9ZrNpvi8g-LsxeKQV1H-34" value="auth.js" style="swimlane;fontStyle=1;align=center;verticalAlign=top;childLayout=stackLayout;horizontal=1;startSize=26;horizontalStack=0;resizeParent=1;resizeParentMax=0;resizeLast=0;collapsible=1;marginBottom=0;whiteSpace=wrap;html=1;" vertex="1" parent="1">
          <mxGeometry x="330" y="180" width="150" height="135" as="geometry">
            <mxRectangle x="60" y="350" width="100" height="30" as="alternateBounds" />
          </mxGeometry>
        </mxCell>
        <mxCell id="U9ZrNpvi8g-LsxeKQV1H-56" value="Extends" style="endArrow=block;endSize=16;endFill=0;html=1;rounded=0;fontSize=12;curved=1;entryX=0;entryY=1;entryDx=0;entryDy=0;" edge="1" parent="U9ZrNpvi8g-LsxeKQV1H-34" target="U9ZrNpvi8g-LsxeKQV1H-36">
          <mxGeometry width="160" relative="1" as="geometry">
            <mxPoint x="75" as="sourcePoint" />
            <mxPoint x="235" as="targetPoint" />
          </mxGeometry>
        </mxCell>
        <mxCell id="U9ZrNpvi8g-LsxeKQV1H-35" value="/signup&lt;div&gt;/signin&lt;/div&gt;&lt;div&gt;/forgetpassword&lt;/div&gt;&lt;div&gt;/resetpassword/:token&lt;/div&gt;&lt;div&gt;/signout&lt;/div&gt;&lt;div&gt;/testroute&lt;/div&gt;" style="text;strokeColor=none;fillColor=none;align=left;verticalAlign=top;spacingLeft=4;spacingRight=4;overflow=hidden;rotatable=0;points=[[0,0.5],[1,0.5]];portConstraint=eastwest;whiteSpace=wrap;html=1;" vertex="1" parent="U9ZrNpvi8g-LsxeKQV1H-34">
          <mxGeometry y="26" width="150" height="109" as="geometry" />
        </mxCell>
        <mxCell id="U9ZrNpvi8g-LsxeKQV1H-36" value="Routes" style="html=1;whiteSpace=wrap;" vertex="1" parent="1">
          <mxGeometry x="615" y="45" width="110" height="50" as="geometry" />
        </mxCell>
        <mxCell id="U9ZrNpvi8g-LsxeKQV1H-37" value="user.js" style="swimlane;fontStyle=1;align=center;verticalAlign=top;childLayout=stackLayout;horizontal=1;startSize=26;horizontalStack=0;resizeParent=1;resizeParentMax=0;resizeLast=0;collapsible=1;marginBottom=0;whiteSpace=wrap;html=1;" vertex="1" parent="1">
          <mxGeometry x="510" y="180" width="150" height="75" as="geometry">
            <mxRectangle x="60" y="350" width="100" height="30" as="alternateBounds" />
          </mxGeometry>
        </mxCell>
        <mxCell id="U9ZrNpvi8g-LsxeKQV1H-57" value="Extends" style="endArrow=block;endSize=16;endFill=0;html=1;rounded=0;fontSize=12;curved=1;entryX=0.25;entryY=1;entryDx=0;entryDy=0;" edge="1" parent="U9ZrNpvi8g-LsxeKQV1H-37" target="U9ZrNpvi8g-LsxeKQV1H-36">
          <mxGeometry width="160" relative="1" as="geometry">
            <mxPoint x="60" as="sourcePoint" />
            <mxPoint x="220" as="targetPoint" />
          </mxGeometry>
        </mxCell>
        <mxCell id="U9ZrNpvi8g-LsxeKQV1H-38" value="userId&lt;div&gt;/user.:userId&lt;/div&gt;" style="text;strokeColor=none;fillColor=none;align=left;verticalAlign=top;spacingLeft=4;spacingRight=4;overflow=hidden;rotatable=0;points=[[0,0.5],[1,0.5]];portConstraint=eastwest;whiteSpace=wrap;html=1;" vertex="1" parent="U9ZrNpvi8g-LsxeKQV1H-37">
          <mxGeometry y="26" width="150" height="49" as="geometry" />
        </mxCell>
        <mxCell id="U9ZrNpvi8g-LsxeKQV1H-39" value="course.js" style="swimlane;fontStyle=1;align=center;verticalAlign=top;childLayout=stackLayout;horizontal=1;startSize=26;horizontalStack=0;resizeParent=1;resizeParentMax=0;resizeLast=0;collapsible=1;marginBottom=0;whiteSpace=wrap;html=1;" vertex="1" parent="1">
          <mxGeometry x="690" y="180" width="150" height="90" as="geometry">
            <mxRectangle x="60" y="350" width="100" height="30" as="alternateBounds" />
          </mxGeometry>
        </mxCell>
        <mxCell id="U9ZrNpvi8g-LsxeKQV1H-40" value="/createcourse&lt;div&gt;/deletecourse/:id&lt;/div&gt;&lt;div&gt;/getcourses&lt;/div&gt;" style="text;strokeColor=none;fillColor=none;align=left;verticalAlign=top;spacingLeft=4;spacingRight=4;overflow=hidden;rotatable=0;points=[[0,0.5],[1,0.5]];portConstraint=eastwest;whiteSpace=wrap;html=1;" vertex="1" parent="U9ZrNpvi8g-LsxeKQV1H-39">
          <mxGeometry y="26" width="150" height="64" as="geometry" />
        </mxCell>
        <mxCell id="U9ZrNpvi8g-LsxeKQV1H-41" value="task.js" style="swimlane;fontStyle=1;align=center;verticalAlign=top;childLayout=stackLayout;horizontal=1;startSize=26;horizontalStack=0;resizeParent=1;resizeParentMax=0;resizeLast=0;collapsible=1;marginBottom=0;whiteSpace=wrap;html=1;" vertex="1" parent="1">
          <mxGeometry x="870" y="180" width="150" height="135" as="geometry">
            <mxRectangle x="60" y="350" width="100" height="30" as="alternateBounds" />
          </mxGeometry>
        </mxCell>
        <mxCell id="U9ZrNpvi8g-LsxeKQV1H-42" value="/createtask&lt;div&gt;/gettasksforuser&lt;/div&gt;&lt;div&gt;/gettasksforcourse&lt;/div&gt;&lt;div&gt;/completetask&lt;/div&gt;&lt;div&gt;/reversecompletetask&lt;/div&gt;&lt;div&gt;/deletetask/:id&lt;/div&gt;" style="text;strokeColor=none;fillColor=none;align=left;verticalAlign=top;spacingLeft=4;spacingRight=4;overflow=hidden;rotatable=0;points=[[0,0.5],[1,0.5]];portConstraint=eastwest;whiteSpace=wrap;html=1;" vertex="1" parent="U9ZrNpvi8g-LsxeKQV1H-41">
          <mxGeometry y="26" width="150" height="109" as="geometry" />
        </mxCell>
        <mxCell id="U9ZrNpvi8g-LsxeKQV1H-49" value="Extends" style="endArrow=block;endSize=16;endFill=0;html=1;rounded=0;fontSize=12;curved=1;exitX=0.5;exitY=0;exitDx=0;exitDy=0;entryX=0.418;entryY=0.96;entryDx=0;entryDy=0;entryPerimeter=0;" edge="1" parent="1" source="U9ZrNpvi8g-LsxeKQV1H-25" target="U9ZrNpvi8g-LsxeKQV1H-27">
          <mxGeometry width="160" relative="1" as="geometry">
            <mxPoint x="-225" y="135" as="sourcePoint" />
            <mxPoint x="-65" y="135" as="targetPoint" />
          </mxGeometry>
        </mxCell>
        <mxCell id="U9ZrNpvi8g-LsxeKQV1H-50" value="Extends" style="endArrow=block;endSize=16;endFill=0;html=1;rounded=0;fontSize=12;curved=1;exitX=0.5;exitY=0;exitDx=0;exitDy=0;" edge="1" parent="1" source="U9ZrNpvi8g-LsxeKQV1H-28" target="U9ZrNpvi8g-LsxeKQV1H-27">
          <mxGeometry width="160" relative="1" as="geometry">
            <mxPoint x="-15" y="150" as="sourcePoint" />
            <mxPoint x="145" y="150" as="targetPoint" />
          </mxGeometry>
        </mxCell>
        <mxCell id="U9ZrNpvi8g-LsxeKQV1H-51" value="Extends" style="endArrow=block;endSize=16;endFill=0;html=1;rounded=0;fontSize=12;curved=1;exitX=0.5;exitY=0;exitDx=0;exitDy=0;entryX=0.691;entryY=1.02;entryDx=0;entryDy=0;entryPerimeter=0;" edge="1" parent="1" source="U9ZrNpvi8g-LsxeKQV1H-30" target="U9ZrNpvi8g-LsxeKQV1H-27">
          <mxGeometry width="160" relative="1" as="geometry">
            <mxPoint x="105" y="135" as="sourcePoint" />
            <mxPoint x="-30" y="90" as="targetPoint" />
          </mxGeometry>
        </mxCell>
        <mxCell id="U9ZrNpvi8g-LsxeKQV1H-52" value="" style="endArrow=none;html=1;rounded=0;fontSize=12;startSize=8;endSize=8;curved=1;exitX=0.5;exitY=0;exitDx=0;exitDy=0;entryX=0;entryY=1;entryDx=0;entryDy=0;" edge="1" parent="1" source="U9ZrNpvi8g-LsxeKQV1H-10" target="U9ZrNpvi8g-LsxeKQV1H-9">
          <mxGeometry relative="1" as="geometry">
            <mxPoint x="-390" y="-45" as="sourcePoint" />
            <mxPoint x="-230" y="-45" as="targetPoint" />
          </mxGeometry>
        </mxCell>
        <mxCell id="U9ZrNpvi8g-LsxeKQV1H-53" value="" style="endArrow=none;html=1;rounded=0;fontSize=12;startSize=8;endSize=8;curved=1;exitX=0.5;exitY=0;exitDx=0;exitDy=0;entryX=0.25;entryY=1;entryDx=0;entryDy=0;" edge="1" parent="1" source="U9ZrNpvi8g-LsxeKQV1H-27" target="U9ZrNpvi8g-LsxeKQV1H-9">
          <mxGeometry relative="1" as="geometry">
            <mxPoint x="120" as="sourcePoint" />
            <mxPoint x="280" as="targetPoint" />
          </mxGeometry>
        </mxCell>
        <mxCell id="U9ZrNpvi8g-LsxeKQV1H-54" value="" style="endArrow=none;html=1;rounded=0;fontSize=12;startSize=8;endSize=8;curved=1;entryX=0.5;entryY=0;entryDx=0;entryDy=0;exitX=0.75;exitY=1;exitDx=0;exitDy=0;" edge="1" parent="1" source="U9ZrNpvi8g-LsxeKQV1H-9" target="U9ZrNpvi8g-LsxeKQV1H-36">
          <mxGeometry relative="1" as="geometry">
            <mxPoint x="455" y="-30" as="sourcePoint" />
            <mxPoint x="615" y="-30" as="targetPoint" />
          </mxGeometry>
        </mxCell>
        <mxCell id="U9ZrNpvi8g-LsxeKQV1H-55" value="" style="endArrow=none;html=1;rounded=0;fontSize=12;startSize=8;endSize=8;curved=1;entryX=0.5;entryY=0;entryDx=0;entryDy=0;exitX=1;exitY=1;exitDx=0;exitDy=0;" edge="1" parent="1" source="U9ZrNpvi8g-LsxeKQV1H-9">
          <mxGeometry relative="1" as="geometry">
            <mxPoint x="1035" y="-15" as="sourcePoint" />
            <mxPoint x="1295" y="45" as="targetPoint" />
          </mxGeometry>
        </mxCell>
        <mxCell id="U9ZrNpvi8g-LsxeKQV1H-58" value="Extends" style="endArrow=block;endSize=16;endFill=0;html=1;rounded=0;fontSize=12;curved=1;exitX=0.5;exitY=0;exitDx=0;exitDy=0;" edge="1" parent="1" source="U9ZrNpvi8g-LsxeKQV1H-39" target="U9ZrNpvi8g-LsxeKQV1H-36">
          <mxGeometry width="160" relative="1" as="geometry">
            <mxPoint x="780" y="135" as="sourcePoint" />
            <mxPoint x="940" y="135" as="targetPoint" />
          </mxGeometry>
        </mxCell>
        <mxCell id="U9ZrNpvi8g-LsxeKQV1H-59" value="Extends" style="endArrow=block;endSize=16;endFill=0;html=1;rounded=0;fontSize=12;curved=1;exitX=0.5;exitY=0;exitDx=0;exitDy=0;entryX=1;entryY=1;entryDx=0;entryDy=0;" edge="1" parent="1" source="U9ZrNpvi8g-LsxeKQV1H-41" target="U9ZrNpvi8g-LsxeKQV1H-36">
          <mxGeometry width="160" relative="1" as="geometry">
            <mxPoint x="960" y="135" as="sourcePoint" />
            <mxPoint x="1120" y="135" as="targetPoint" />
          </mxGeometry>
        </mxCell>
        <mxCell id="U9ZrNpvi8g-LsxeKQV1H-61" value="Extends" style="endArrow=block;endSize=16;endFill=0;html=1;rounded=0;fontSize=12;curved=1;exitX=0.5;exitY=0;exitDx=0;exitDy=0;entryX=0.25;entryY=1;entryDx=0;entryDy=0;" edge="1" parent="1" source="U9ZrNpvi8g-LsxeKQV1H-17" target="U9ZrNpvi8g-LsxeKQV1H-10">
          <mxGeometry width="160" relative="1" as="geometry">
            <mxPoint x="-810" y="150" as="sourcePoint" />
            <mxPoint x="-650" y="150" as="targetPoint" />
          </mxGeometry>
        </mxCell>
        <mxCell id="U9ZrNpvi8g-LsxeKQV1H-62" value="Extends" style="endArrow=block;endSize=16;endFill=0;html=1;rounded=0;fontSize=12;curved=1;exitX=0.5;exitY=0;exitDx=0;exitDy=0;entryX=0.75;entryY=1;entryDx=0;entryDy=0;" edge="1" parent="1" source="U9ZrNpvi8g-LsxeKQV1H-19" target="U9ZrNpvi8g-LsxeKQV1H-10">
          <mxGeometry width="160" relative="1" as="geometry">
            <mxPoint x="-705" y="240" as="sourcePoint" />
            <mxPoint x="-545" y="240" as="targetPoint" />
          </mxGeometry>
        </mxCell>
        <mxCell id="U9ZrNpvi8g-LsxeKQV1H-63" value="Extends" style="endArrow=block;endSize=16;endFill=0;html=1;rounded=0;fontSize=12;curved=1;exitX=0.5;exitY=0;exitDx=0;exitDy=0;entryX=1;entryY=1;entryDx=0;entryDy=0;" edge="1" parent="1" source="U9ZrNpvi8g-LsxeKQV1H-21" target="U9ZrNpvi8g-LsxeKQV1H-10">
          <mxGeometry width="160" relative="1" as="geometry">
            <mxPoint x="-705" y="240" as="sourcePoint" />
            <mxPoint x="-545" y="240" as="targetPoint" />
          </mxGeometry>
        </mxCell>
        <mxCell id="U9ZrNpvi8g-LsxeKQV1H-78" value="Use" style="endArrow=open;endSize=12;dashed=1;html=1;rounded=0;fontSize=12;curved=1;entryX=0.632;entryY=1.016;entryDx=0;entryDy=0;entryPerimeter=0;" edge="1" parent="1" target="U9ZrNpvi8g-LsxeKQV1H-26">
          <mxGeometry x="0.2106" y="-42" width="160" relative="1" as="geometry">
            <mxPoint x="105" y="307" as="sourcePoint" />
            <mxPoint x="265" y="315" as="targetPoint" />
            <Array as="points">
              <mxPoint x="30" y="495" />
            </Array>
            <mxPoint as="offset" />
          </mxGeometry>
        </mxCell>
        <mxCell id="U9ZrNpvi8g-LsxeKQV1H-79" value="" style="endArrow=block;dashed=1;endFill=0;endSize=12;html=1;rounded=0;fontSize=12;curved=1;exitX=0.697;exitY=1.026;exitDx=0;exitDy=0;exitPerimeter=0;entryX=-0.041;entryY=1.063;entryDx=0;entryDy=0;entryPerimeter=0;" edge="1" parent="1" source="U9ZrNpvi8g-LsxeKQV1H-6" target="U9ZrNpvi8g-LsxeKQV1H-26">
          <mxGeometry width="160" relative="1" as="geometry">
            <mxPoint x="-870" y="405" as="sourcePoint" />
            <mxPoint x="-710" y="405" as="targetPoint" />
            <Array as="points">
              <mxPoint x="-615" y="495" />
            </Array>
          </mxGeometry>
        </mxCell>
        <mxCell id="U9ZrNpvi8g-LsxeKQV1H-80" value="Use" style="edgeLabel;html=1;align=center;verticalAlign=middle;resizable=0;points=[];fontSize=12;" vertex="1" connectable="0" parent="U9ZrNpvi8g-LsxeKQV1H-79">
          <mxGeometry x="-0.0936" y="64" relative="1" as="geometry">
            <mxPoint as="offset" />
          </mxGeometry>
        </mxCell>
        <mxCell id="U9ZrNpvi8g-LsxeKQV1H-81" value="Use" style="endArrow=open;endSize=12;dashed=1;html=1;rounded=0;fontSize=12;curved=1;exitX=0.402;exitY=1.051;exitDx=0;exitDy=0;exitPerimeter=0;entryX=-0.022;entryY=0.984;entryDx=0;entryDy=0;entryPerimeter=0;" edge="1" parent="1" source="U9ZrNpvi8g-LsxeKQV1H-20" target="U9ZrNpvi8g-LsxeKQV1H-26">
          <mxGeometry x="0.3172" y="62" width="160" relative="1" as="geometry">
            <mxPoint x="-285" y="240" as="sourcePoint" />
            <mxPoint x="-125" y="240" as="targetPoint" />
            <Array as="points">
              <mxPoint x="-570" y="600" />
            </Array>
            <mxPoint x="-1" as="offset" />
          </mxGeometry>
        </mxCell>
        <mxCell id="U9ZrNpvi8g-LsxeKQV1H-82" value="Use" style="endArrow=open;endSize=12;dashed=1;html=1;rounded=0;fontSize=12;curved=1;exitX=0.688;exitY=1.051;exitDx=0;exitDy=0;exitPerimeter=0;entryX=0.2;entryY=1;entryDx=0;entryDy=0;entryPerimeter=0;" edge="1" parent="1" source="U9ZrNpvi8g-LsxeKQV1H-20" target="U9ZrNpvi8g-LsxeKQV1H-29">
          <mxGeometry x="0.3003" y="95" width="160" relative="1" as="geometry">
            <mxPoint x="-285" y="240" as="sourcePoint" />
            <mxPoint x="-125" y="240" as="targetPoint" />
            <Array as="points">
              <mxPoint x="-360" y="600" />
            </Array>
            <mxPoint x="-1" as="offset" />
          </mxGeometry>
        </mxCell>
        <mxCell id="U9ZrNpvi8g-LsxeKQV1H-83" value="Use" style="endArrow=open;endSize=12;dashed=1;html=1;rounded=0;fontSize=12;curved=1;entryX=0.34;entryY=1.039;entryDx=0;entryDy=0;entryPerimeter=0;" edge="1" parent="1" target="U9ZrNpvi8g-LsxeKQV1H-31">
          <mxGeometry x="-0.1889" y="88" width="160" relative="1" as="geometry">
            <mxPoint x="-420" y="315" as="sourcePoint" />
            <mxPoint x="-260" y="315" as="targetPoint" />
            <Array as="points">
              <mxPoint x="-120" y="600" />
            </Array>
            <mxPoint as="offset" />
          </mxGeometry>
        </mxCell>
        <mxCell id="U9ZrNpvi8g-LsxeKQV1H-84" value="Use" style="endArrow=open;endSize=12;dashed=1;html=1;rounded=0;fontSize=12;curved=1;entryX=0.435;entryY=1.05;entryDx=0;entryDy=0;entryPerimeter=0;exitX=0.5;exitY=1;exitDx=0;exitDy=0;exitPerimeter=0;" edge="1" parent="1" source="U9ZrNpvi8g-LsxeKQV1H-22" target="U9ZrNpvi8g-LsxeKQV1H-29">
          <mxGeometry x="0.3889" y="86" width="160" relative="1" as="geometry">
            <mxPoint x="-450" y="315" as="sourcePoint" />
            <mxPoint x="-290" y="315" as="targetPoint" />
            <Array as="points">
              <mxPoint x="-240" y="690" />
            </Array>
            <mxPoint as="offset" />
          </mxGeometry>
        </mxCell>
        <mxCell id="U9ZrNpvi8g-LsxeKQV1H-85" value="Use" style="endArrow=open;endSize=12;dashed=1;html=1;rounded=0;fontSize=12;curved=1;exitX=0.23;exitY=1.01;exitDx=0;exitDy=0;exitPerimeter=0;" edge="1" parent="1" source="U9ZrNpvi8g-LsxeKQV1H-22" target="U9ZrNpvi8g-LsxeKQV1H-26">
          <mxGeometry x="0.3796" y="49" width="160" relative="1" as="geometry">
            <mxPoint x="-435" y="540" as="sourcePoint" />
            <mxPoint x="-275" y="540" as="targetPoint" />
            <Array as="points">
              <mxPoint x="-450" y="690" />
            </Array>
            <mxPoint as="offset" />
          </mxGeometry>
        </mxCell>
        <mxCell id="U9ZrNpvi8g-LsxeKQV1H-86" value="Use" style="endArrow=open;endSize=12;dashed=1;html=1;rounded=0;fontSize=12;curved=1;exitX=0.469;exitY=1.082;exitDx=0;exitDy=0;exitPerimeter=0;entryX=-0.031;entryY=0.748;entryDx=0;entryDy=0;entryPerimeter=0;" edge="1" parent="1" source="U9ZrNpvi8g-LsxeKQV1H-18" target="U9ZrNpvi8g-LsxeKQV1H-26">
          <mxGeometry x="0.0588" y="51" width="160" relative="1" as="geometry">
            <mxPoint x="-810" y="345" as="sourcePoint" />
            <mxPoint x="-650" y="345" as="targetPoint" />
            <Array as="points">
              <mxPoint x="-630" y="435" />
            </Array>
            <mxPoint as="offset" />
          </mxGeometry>
        </mxCell>
        <mxCell id="U9ZrNpvi8g-LsxeKQV1H-87" value="Use" style="endArrow=open;endSize=12;dashed=1;html=1;rounded=0;fontSize=12;curved=1;exitX=0.469;exitY=1.01;exitDx=0;exitDy=0;exitPerimeter=0;" edge="1" parent="1" source="U9ZrNpvi8g-LsxeKQV1H-35" target="U9ZrNpvi8g-LsxeKQV1H-6">
          <mxGeometry x="0.0878" y="-169" width="160" relative="1" as="geometry">
            <mxPoint x="375" y="405" as="sourcePoint" />
            <mxPoint x="-1005" y="345" as="targetPoint" />
            <Array as="points">
              <mxPoint x="-90" y="840" />
            </Array>
            <mxPoint x="-1" as="offset" />
          </mxGeometry>
        </mxCell>
        <mxCell id="U9ZrNpvi8g-LsxeKQV1H-88" value="Use" style="endArrow=open;endSize=12;dashed=1;html=1;rounded=0;fontSize=12;curved=1;exitX=0.326;exitY=1.082;exitDx=0;exitDy=0;exitPerimeter=0;entryX=0.173;entryY=1.003;entryDx=0;entryDy=0;entryPerimeter=0;" edge="1" parent="1" source="U9ZrNpvi8g-LsxeKQV1H-38" target="U9ZrNpvi8g-LsxeKQV1H-6">
          <mxGeometry x="-0.1089" y="-165" width="160" relative="1" as="geometry">
            <mxPoint x="555" y="360" as="sourcePoint" />
            <mxPoint x="715" y="360" as="targetPoint" />
            <Array as="points">
              <mxPoint x="510" y="855" />
            </Array>
            <mxPoint as="offset" />
          </mxGeometry>
        </mxCell>
        <mxCell id="U9ZrNpvi8g-LsxeKQV1H-89" value="Use" style="endArrow=open;endSize=12;dashed=1;html=1;rounded=0;fontSize=12;curved=1;exitX=0.602;exitY=1.023;exitDx=0;exitDy=0;exitPerimeter=0;entryX=0.564;entryY=1.052;entryDx=0;entryDy=0;entryPerimeter=0;" edge="1" parent="1" source="U9ZrNpvi8g-LsxeKQV1H-38" target="U9ZrNpvi8g-LsxeKQV1H-18">
          <mxGeometry x="-0.7737" y="-183" width="160" relative="1" as="geometry">
            <mxPoint x="615" y="345" as="sourcePoint" />
            <mxPoint x="775" y="345" as="targetPoint" />
            <Array as="points">
              <mxPoint x="675" y="840" />
            </Array>
            <mxPoint y="1" as="offset" />
          </mxGeometry>
        </mxCell>
        <mxCell id="U9ZrNpvi8g-LsxeKQV1H-90" value="Use" style="endArrow=open;endSize=12;dashed=1;html=1;rounded=0;fontSize=12;curved=1;exitX=0.535;exitY=0.984;exitDx=0;exitDy=0;exitPerimeter=0;entryX=0.611;entryY=1.029;entryDx=0;entryDy=0;entryPerimeter=0;" edge="1" parent="1" source="U9ZrNpvi8g-LsxeKQV1H-40" target="U9ZrNpvi8g-LsxeKQV1H-20">
          <mxGeometry x="0.1092" y="-230" width="160" relative="1" as="geometry">
            <mxPoint x="735" y="375" as="sourcePoint" />
            <mxPoint x="895" y="375" as="targetPoint" />
            <Array as="points">
              <mxPoint x="300" y="975" />
            </Array>
            <mxPoint x="-1" as="offset" />
          </mxGeometry>
        </mxCell>
        <mxCell id="U9ZrNpvi8g-LsxeKQV1H-91" value="Use" style="endArrow=open;endSize=12;dashed=1;html=1;rounded=0;fontSize=12;curved=1;exitX=0.526;exitY=1.05;exitDx=0;exitDy=0;exitPerimeter=0;entryX=1.002;entryY=0.814;entryDx=0;entryDy=0;entryPerimeter=0;" edge="1" parent="1" source="U9ZrNpvi8g-LsxeKQV1H-42" target="U9ZrNpvi8g-LsxeKQV1H-22">
          <mxGeometry x="-0.2821" y="-147" width="160" relative="1" as="geometry">
            <mxPoint x="735" y="510" as="sourcePoint" />
            <mxPoint x="895" y="510" as="targetPoint" />
            <Array as="points">
              <mxPoint x="885" y="720" />
            </Array>
            <mxPoint as="offset" />
          </mxGeometry>
        </mxCell>
        <mxCell id="U9ZrNpvi8g-LsxeKQV1H-92" value="index.js" style="html=1;whiteSpace=wrap;" vertex="1" parent="1">
          <mxGeometry x="1245" y="45" width="110" height="50" as="geometry" />
        </mxCell>
        <mxCell id="U9ZrNpvi8g-LsxeKQV1H-93" value="Use" style="endArrow=open;endSize=12;dashed=1;html=1;rounded=0;fontSize=12;curved=1;exitX=0;exitY=0.5;exitDx=0;exitDy=0;entryX=1;entryY=0.5;entryDx=0;entryDy=0;" edge="1" parent="1" source="U9ZrNpvi8g-LsxeKQV1H-92" target="U9ZrNpvi8g-LsxeKQV1H-36">
          <mxGeometry width="160" relative="1" as="geometry">
            <mxPoint x="1020" y="75" as="sourcePoint" />
            <mxPoint x="1180" y="75" as="targetPoint" />
          </mxGeometry>
        </mxCell>
      </root>
    </mxGraphModel>
  </diagram>
</mxfile>
